ply
format ascii 1.0
comment Created by Blender 3.4.1 - www.blender.org
element vertex 718
property float x
property float y
property float z
property uchar red
property uchar green
property uchar blue
property uchar alpha
element face 1380
property list uchar uint vertex_indices
end_header
-0.500000 -0.500000 0.500000 77 40 0 255
0.500000 -0.500000 -0.500000 77 40 0 255
0.500000 -0.500000 0.500000 77 40 0 255
0.500000 0.500000 -0.500000 77 40 0 255
0.499999 0.500000 0.500000 77 40 0 255
-0.400000 0.400000 0.500000 77 40 0 255
-0.500000 0.500000 0.499999 77 40 0 255
0.400000 -0.400000 0.500000 77 40 0 255
-0.500000 -0.500000 -0.500000 77 40 0 255
-0.500000 0.500000 -0.500000 77 40 0 255
-0.400000 -0.400000 -0.100000 77 40 0 255
-0.400000 -0.400000 0.500000 77 40 0 255
-0.400000 0.400000 -0.100000 77 40 0 255
0.400000 -0.400000 -0.100000 77 40 0 255
0.400000 0.400000 0.500000 77 40 0 255
0.400000 0.400000 -0.100000 77 40 0 255
-0.050000 -0.100000 -0.070000 176 176 176 255
-0.350000 -0.146353 -0.042705 176 176 176 255
-0.350000 -0.100000 -0.070000 176 176 176 255
-0.050000 -0.146353 -0.042705 176 176 176 255
-0.350000 -0.175000 0.107295 176 176 176 255
-0.050000 -0.175000 0.107295 176 176 176 255
-0.350000 -0.175000 0.292705 176 176 176 255
-0.050000 -0.175000 0.292705 176 176 176 255
-0.350000 -0.146353 0.442705 176 176 176 255
-0.050000 -0.146353 0.442705 176 176 176 255
-0.350000 -0.100000 0.470000 176 176 176 255
-0.050000 -0.100000 0.470000 176 176 176 255
-0.350000 -0.053647 0.442705 176 176 176 255
-0.050000 -0.053647 0.442705 176 176 176 255
-0.350000 -0.025000 0.292705 176 176 176 255
-0.050000 -0.025000 0.292705 176 176 176 255
-0.350000 -0.025000 0.107295 176 176 176 255
-0.050000 -0.025000 0.107295 176 176 176 255
-0.350000 -0.053647 -0.042705 176 176 176 255
-0.050000 -0.053647 -0.042705 176 176 176 255
-0.051000 -0.220000 -0.070000 176 176 176 255
-0.349000 -0.266353 -0.042705 176 176 176 255
-0.349000 -0.220000 -0.070000 176 176 176 255
-0.051000 -0.266353 -0.042705 176 176 176 255
-0.349000 -0.295000 0.107295 176 176 176 255
-0.051000 -0.295000 0.107295 176 176 176 255
-0.349000 -0.295000 0.292705 176 176 176 255
-0.051000 -0.295000 0.292705 176 176 176 255
-0.349000 -0.266353 0.442705 176 176 176 255
-0.051000 -0.266353 0.442705 176 176 176 255
-0.349000 -0.220000 0.470000 176 176 176 255
-0.051000 -0.220000 0.470000 176 176 176 255
-0.349000 -0.173647 0.442705 176 176 176 255
-0.051000 -0.173647 0.442705 176 176 176 255
-0.349000 -0.145000 0.292705 176 176 176 255
-0.051000 -0.145000 0.292705 176 176 176 255
-0.349000 -0.145000 0.107295 176 176 176 255
-0.051000 -0.145000 0.107295 176 176 176 255
-0.349000 -0.173647 -0.042705 176 176 176 255
-0.051000 -0.173647 -0.042705 176 176 176 255
-0.050000 -0.340000 -0.070000 176 176 176 255
-0.350000 -0.386352 -0.042705 176 176 176 255
-0.350000 -0.340000 -0.070000 176 176 176 255
-0.050000 -0.386353 -0.042705 176 176 176 255
-0.350000 -0.415000 0.107295 176 176 176 255
-0.050000 -0.415000 0.107295 176 176 176 255
-0.350000 -0.415000 0.292705 176 176 176 255
-0.050000 -0.386353 0.442705 176 176 176 255
-0.350000 -0.386352 0.442705 176 176 176 255
-0.050000 -0.340000 0.470000 176 176 176 255
-0.350000 -0.340000 0.470000 176 176 176 255
-0.350000 -0.293647 0.442705 176 176 176 255
-0.050000 -0.293647 0.442705 176 176 176 255
-0.350000 -0.265000 0.292705 176 176 176 255
-0.050000 -0.265000 0.292705 176 176 176 255
-0.350000 -0.265000 0.107295 176 176 176 255
-0.050000 -0.415000 0.292705 176 176 176 255
-0.050000 -0.265000 0.107295 176 176 176 255
-0.350000 -0.293647 -0.042705 176 176 176 255
-0.050000 -0.293647 -0.042705 176 176 176 255
-0.082930 0.715000 0.027585 0 51 0 255
-0.447309 0.645000 -0.036665 0 51 0 255
-0.082930 0.645000 0.027585 0 51 0 255
-0.409106 0.645000 -0.253323 0 51 0 255
-0.081157 0.652000 0.017532 0 51 0 255
-0.081157 0.708000 0.017532 0 51 0 255
-0.409106 0.715000 -0.253323 0 51 0 255
-0.044727 0.715000 -0.189073 0 51 0 255
-0.447309 0.715000 -0.036665 0 51 0 255
-0.445536 0.652000 -0.046718 0 51 0 255
-0.409106 0.652000 -0.253323 0 51 0 255
-0.044727 0.645000 -0.189073 0 51 0 255
-0.044727 0.708000 -0.189073 0 51 0 255
-0.409106 0.708000 -0.253323 0 51 0 255
-0.445536 0.708000 -0.046718 0 51 0 255
-0.044727 0.652000 -0.189073 0 51 0 255
-0.085712 0.708000 0.016729 255 255 255 255
-0.440981 0.652000 -0.045915 255 255 255 255
-0.085712 0.652000 0.016729 255 255 255 255
-0.440981 0.708000 -0.045915 255 255 255 255
-0.405911 0.652000 -0.244807 255 255 255 255
-0.405911 0.708000 -0.244807 255 255 255 255
-0.050642 0.652000 -0.182163 255 255 255 255
-0.050642 0.708000 -0.182163 255 255 255 255
-0.130200 0.645000 0.067878 0 102 153 255
-0.465534 0.575000 -0.088491 0 102 153 255
-0.130200 0.575000 0.067878 0 102 153 255
-0.372558 0.575000 -0.287878 255 5 12 255
-0.125886 0.582000 0.058627 0 102 153 255
-0.125886 0.638000 0.058627 0 102 153 255
-0.372558 0.645000 -0.287878 0 102 153 255
-0.037224 0.645000 -0.131509 0 102 153 255
-0.465534 0.645000 -0.088491 0 102 153 255
-0.461220 0.582000 -0.097742 2 101 152 255
-0.372558 0.582000 -0.287878 0 102 153 255
-0.037224 0.575000 -0.131509 255 5 12 255
-0.037224 0.638000 -0.131509 0 102 153 255
-0.372558 0.638000 -0.287878 0 102 153 255
-0.461220 0.638000 -0.097742 3 101 152 255
-0.130078 0.638000 0.056672 255 255 255 255
-0.457028 0.582000 -0.095788 255 255 255 255
-0.130078 0.582000 0.056672 255 255 255 255
-0.457028 0.638000 -0.095788 255 255 255 255
-0.371676 0.582000 -0.278825 255 255 255 255
-0.371676 0.638000 -0.278825 255 255 255 255
-0.044726 0.582000 -0.126366 255 255 255 255
-0.044726 0.638000 -0.126366 255 255 255 255
-0.109592 0.785000 0.062625 255 5 12 255
-0.457278 0.715000 -0.063922 255 5 12 255
-0.109592 0.715000 0.062625 255 5 12 255
-0.034348 0.715000 -0.144107 255 5 12 255
-0.106101 0.778000 0.053033 255 5 12 255
-0.457278 0.785000 -0.063922 255 5 12 255
-0.034348 0.785000 -0.144107 255 5 12 255
-0.382034 0.785000 -0.270655 255 5 12 255
-0.453787 0.722000 -0.073515 255 5 12 255
-0.382034 0.722000 -0.270655 255 5 12 255
-0.382034 0.715000 -0.270655 255 5 12 255
-0.034348 0.778000 -0.144107 255 5 12 255
-0.382034 0.778000 -0.270655 255 5 12 255
-0.106101 0.722000 0.053033 255 5 12 255
-0.453787 0.778000 -0.073515 255 5 12 255
-0.034348 0.722000 -0.144107 255 5 12 255
-0.110447 0.778000 0.051451 255 255 255 255
-0.449441 0.722000 -0.071933 255 255 255 255
-0.110447 0.722000 0.051451 255 255 255 255
-0.449441 0.778000 -0.071933 255 255 255 255
-0.380367 0.722000 -0.261713 255 255 255 255
-0.380367 0.778000 -0.261713 255 255 255 255
-0.041373 0.722000 -0.138329 255 255 255 255
-0.041373 0.778000 -0.138329 255 255 255 255
-0.113779 0.575000 0.066640 255 5 12 255
-0.461465 0.505000 -0.059908 255 5 12 255
-0.113779 0.505000 0.066640 255 5 12 255
-0.038535 0.505000 -0.140092 255 5 12 255
-0.110288 0.512000 0.057048 255 5 12 255
-0.110288 0.568000 0.057048 255 5 12 255
-0.461465 0.575000 -0.059908 255 5 12 255
-0.038535 0.575000 -0.140092 255 5 12 255
-0.386221 0.575000 -0.266640 255 5 12 255
-0.457974 0.512000 -0.069500 255 5 12 255
-0.386221 0.512000 -0.266640 255 5 12 255
-0.386221 0.505000 -0.266640 255 5 12 255
-0.038535 0.568000 -0.140092 255 5 12 255
-0.386221 0.568000 -0.266640 255 5 12 255
-0.457974 0.568000 -0.069500 255 5 12 255
-0.038535 0.512000 -0.140092 255 5 12 255
-0.114634 0.568000 0.055466 255 255 255 255
-0.453628 0.512000 -0.067918 255 255 255 255
-0.114634 0.512000 0.055466 255 255 255 255
-0.453628 0.568000 -0.067918 255 255 255 255
-0.384553 0.512000 -0.257698 255 255 255 255
-0.384553 0.568000 -0.257698 255 255 255 255
-0.045559 0.512000 -0.134315 255 255 255 255
-0.045559 0.568000 -0.134315 255 255 255 255
-0.063205 0.700000 0.183397 68 68 68 255
0.283205 0.500000 -0.016603 68 68 68 255
-0.063205 0.500000 0.183397 68 68 68 255
0.383205 0.500000 0.156602 68 68 68 255
0.355885 0.500000 0.149282 68 68 68 255
0.275885 0.500000 0.010718 68 68 68 255
0.044115 0.500000 0.329282 68 68 68 255
0.036795 0.500000 0.356602 68 68 68 255
-0.035885 0.500000 0.190718 68 68 68 255
0.036795 0.700000 0.356602 68 68 68 255
0.044115 0.700000 0.329282 68 68 68 255
0.355885 0.700000 0.149282 68 68 68 255
0.275885 0.700000 0.010718 68 68 68 255
0.383205 0.700000 0.156602 68 68 68 255
0.283205 0.700000 -0.016603 68 68 68 255
-0.035885 0.700000 0.190718 68 68 68 255
0.396833 0.003818 0.111335 166 166 166 255
0.370038 -0.396182 0.211335 166 166 166 255
0.396833 -0.396182 0.111335 166 166 166 255
0.023628 -0.396182 0.211335 166 166 166 255
0.023628 -0.396182 0.011335 166 166 166 255
0.370038 -0.396182 0.011335 166 166 166 255
0.370038 0.003818 0.011335 166 166 166 255
0.109333 0.003818 0.262890 166 166 166 255
0.096833 0.003818 0.284540 166 166 166 255
0.196833 0.003818 0.311335 166 166 166 255
0.196833 0.003818 -0.063665 166 166 166 255
0.296833 0.003818 -0.061870 166 166 166 255
0.196833 0.003818 -0.088665 166 166 166 255
0.370038 0.003818 0.211335 166 166 166 255
0.296833 -0.396182 0.284540 166 166 166 255
0.296833 0.003818 0.284540 166 166 166 255
0.196833 -0.396182 0.311335 166 166 166 255
0.096833 -0.396182 0.284540 166 166 166 255
0.023628 0.003818 0.211335 166 166 166 255
-0.003167 -0.396182 0.111335 166 166 166 255
-0.003167 0.003818 0.111335 166 166 166 255
0.023628 0.003818 0.011335 166 166 166 255
0.096833 -0.396182 -0.061870 166 166 166 255
0.096833 0.003818 -0.061870 166 166 166 255
0.196833 -0.396182 -0.088665 166 166 166 255
0.296833 -0.396182 -0.061870 166 166 166 255
0.371833 0.003818 0.111335 166 166 166 255
0.348387 -0.046182 0.198835 166 166 166 255
0.348387 0.003818 0.198835 166 166 166 255
0.284333 -0.046182 0.262890 166 166 166 255
0.284333 0.003818 0.262890 166 166 166 255
0.045279 -0.046182 0.198835 166 166 166 255
0.196833 -0.046182 0.286335 166 166 166 255
0.348387 0.003818 0.023835 166 166 166 255
0.371833 -0.046182 0.111335 166 166 166 255
0.196833 0.003818 0.286335 166 166 166 255
0.109333 -0.046182 0.262890 166 166 166 255
0.045279 0.003818 0.198835 166 166 166 255
0.021833 -0.046182 0.111335 166 166 166 255
0.021833 0.003818 0.111335 166 166 166 255
0.045279 -0.046182 0.023835 166 166 166 255
0.045279 0.003818 0.023835 166 166 166 255
0.109333 -0.046182 -0.040219 166 166 166 255
0.109333 0.003818 -0.040219 166 166 166 255
0.196833 -0.046182 -0.063665 166 166 166 255
0.284333 -0.046182 -0.040219 166 166 166 255
0.284333 0.003818 -0.040219 166 166 166 255
0.348387 -0.046182 0.023835 166 166 166 255
0.367751 -0.022048 0.111335 230 230 0 255
0.374792 -0.031428 0.146733 230 230 0 255
0.378278 -0.031428 0.111335 230 230 0 255
0.267629 -0.087376 0.111335 255 255 255 255
0.232231 -0.090222 0.118376 255 255 255 255
0.232925 -0.090222 0.111335 255 255 255 255
0.381833 -0.041182 0.111335 230 230 0 255
0.378278 -0.041182 0.147427 230 230 0 255
0.232925 0.007857 0.111335 230 230 0 255
0.196833 0.008818 0.111335 230 230 0 255
0.232231 0.007857 0.118376 230 230 0 255
0.196833 -0.091182 0.111335 255 255 255 255
0.374792 -0.050937 0.146733 167 164 41 255
0.378278 -0.050937 0.111335 195 195 22 255
0.267629 0.005012 0.111335 230 230 0 255
0.266269 0.005012 0.125147 230 230 0 255
0.367751 -0.060316 0.111335 255 255 255 255
0.364467 -0.060316 0.144680 255 255 255 255
0.299613 0.000391 0.111335 230 230 0 255
0.297639 0.000391 0.131387 230 230 0 255
0.347699 -0.068961 0.141344 255 255 255 255
0.350655 -0.068961 0.111335 255 255 255 255
0.327648 -0.005827 0.111335 230 230 0 255
0.325134 -0.005827 0.136856 230 230 0 255
0.327648 -0.076538 0.111335 255 255 255 255
0.325134 -0.076538 0.136856 255 255 255 255
0.347699 -0.013404 0.141344 230 230 0 255
0.350655 -0.013404 0.111335 230 230 0 255
0.297639 -0.082756 0.131387 255 255 255 255
0.299613 -0.082756 0.111335 255 255 255 255
0.364467 -0.022048 0.144680 230 230 0 255
0.266269 -0.087376 0.125147 255 255 255 255
0.338946 -0.013404 0.170200 230 230 0 255
0.354740 -0.022048 0.176742 230 230 0 255
0.291790 -0.082756 0.150668 255 255 255 255
0.262240 -0.087376 0.138428 255 255 255 255
0.364467 -0.031428 0.180771 230 230 0 255
0.230177 -0.090222 0.125147 255 255 255 255
0.367751 -0.041182 0.182132 230 230 0 255
0.230177 0.007857 0.125147 230 230 0 255
0.364467 -0.050937 0.180771 223 222 176 255
0.262240 0.005012 0.138428 230 230 0 255
0.354740 -0.060316 0.176742 255 255 255 255
0.291790 0.000391 0.150668 230 230 0 255
0.338946 -0.068961 0.170200 255 255 255 255
0.317690 -0.005827 0.161396 230 230 0 255
0.317690 -0.076538 0.161396 255 255 255 255
0.338946 -0.060316 0.206292 255 255 255 255
0.282292 0.000391 0.168437 230 230 0 255
0.324731 -0.068961 0.196794 255 255 255 255
0.305601 -0.005827 0.184012 230 230 0 255
0.305601 -0.076538 0.184012 255 255 255 255
0.324731 -0.013404 0.196794 230 230 0 255
0.282292 -0.082756 0.168437 255 255 255 255
0.338946 -0.022048 0.206292 230 230 0 255
0.255698 -0.087376 0.150668 255 255 255 255
0.347699 -0.031428 0.212141 230 230 0 255
0.226842 -0.090222 0.131387 255 255 255 255
0.350655 -0.041182 0.214116 230 230 0 255
0.226842 0.007857 0.131387 230 230 0 255
0.347699 -0.050937 0.212141 255 255 255 255
0.255698 0.005012 0.150668 230 230 0 255
0.269510 -0.082756 0.184012 255 255 255 255
0.246894 -0.087376 0.161396 255 255 255 255
0.317690 -0.022048 0.232192 230 230 0 255
0.325134 -0.031428 0.239636 230 230 0 255
0.222354 -0.090222 0.136856 255 255 255 255
0.327648 -0.041182 0.242150 230 230 0 255
0.222354 0.007857 0.136856 230 230 0 255
0.325134 -0.050937 0.239636 166 163 39 255
0.246894 0.005012 0.161396 230 230 0 255
0.317690 -0.060316 0.232192 255 255 255 255
0.269510 0.000391 0.184012 230 230 0 255
0.305601 -0.068961 0.220104 255 255 255 255
0.289333 -0.005827 0.203835 230 230 0 255
0.289333 -0.076538 0.203835 255 255 255 255
0.305601 -0.013404 0.220104 230 230 0 255
0.253935 0.000391 0.196794 230 230 0 255
0.291790 -0.060316 0.253448 255 255 255 255
0.282292 -0.068961 0.239233 255 255 255 255
0.269510 -0.005827 0.220104 230 230 0 255
0.269510 -0.076538 0.220104 255 255 255 255
0.282292 -0.013404 0.239233 230 230 0 255
0.253935 -0.082756 0.196794 255 255 255 255
0.291790 -0.022048 0.253448 230 230 0 255
0.236165 -0.087376 0.170200 255 255 255 255
0.297639 -0.031428 0.262201 230 230 0 255
0.216884 -0.090222 0.141344 255 255 255 255
0.299613 -0.041182 0.265157 230 230 0 255
0.216884 0.007857 0.141344 230 230 0 255
0.297639 -0.050937 0.262201 166 163 39 255
0.236165 0.005012 0.170200 230 230 0 255
0.266269 -0.031428 0.278969 230 230 0 255
0.210645 -0.090222 0.144680 255 255 255 255
0.267629 -0.041182 0.282253 230 230 0 255
0.210645 0.007857 0.144680 230 230 0 255
0.266269 -0.050937 0.278969 166 163 39 255
0.223926 0.005012 0.176743 230 230 0 255
0.262240 -0.060316 0.269243 255 255 255 255
0.236165 0.000391 0.206292 230 230 0 255
0.255698 -0.068961 0.253448 255 255 255 255
0.246894 -0.005827 0.232192 230 230 0 255
0.246894 -0.076538 0.232192 255 255 255 255
0.255698 -0.013404 0.253448 230 230 0 255
0.236165 -0.082756 0.206292 255 255 255 255
0.262240 -0.022048 0.269243 230 230 0 255
0.223926 -0.087376 0.176742 255 255 255 255
0.226842 -0.068961 0.262201 255 255 255 255
0.222354 -0.005827 0.239636 230 230 0 255
0.222354 -0.076538 0.239636 255 255 255 255
0.226842 -0.013404 0.262201 230 230 0 255
0.216884 -0.082756 0.212141 255 255 255 255
0.230177 -0.022048 0.278969 230 230 0 255
0.210645 -0.087376 0.180771 255 255 255 255
0.232231 -0.031428 0.289294 230 230 0 255
0.203874 -0.090222 0.146733 255 255 255 255
0.232925 -0.041182 0.292780 166 163 39 255
0.203874 0.007857 0.146733 230 230 0 255
0.232231 -0.050937 0.289294 166 163 39 255
0.210645 0.005012 0.180771 230 230 0 255
0.230177 -0.060316 0.278969 255 255 255 255
0.216884 0.000391 0.212141 230 230 0 255
0.196833 -0.090222 0.147427 255 255 255 255
0.196833 -0.041182 0.296335 168 165 38 255
0.196833 0.007857 0.147427 230 230 0 255
0.196833 -0.050937 0.292780 167 164 39 255
0.196833 0.005012 0.182132 230 230 0 255
0.196833 -0.060316 0.282253 255 255 255 255
0.196833 0.000391 0.214116 230 230 0 255
0.196833 -0.068961 0.265157 255 255 255 255
0.196833 -0.005827 0.242150 230 230 0 255
0.196833 -0.076538 0.242150 255 255 255 255
0.196833 -0.013404 0.265157 230 230 0 255
0.196833 -0.082756 0.214116 255 255 255 255
0.196833 -0.022048 0.282253 230 230 0 255
0.196833 -0.087376 0.182132 255 255 255 255
0.196833 -0.031428 0.292780 187 185 26 255
0.166824 -0.068961 0.262201 255 255 255 255
0.171312 -0.076538 0.239636 255 255 255 255
0.166824 -0.013404 0.262201 230 230 0 255
0.176781 -0.082756 0.212141 255 255 255 255
0.163489 -0.022048 0.278969 230 230 0 255
0.183021 -0.087376 0.180771 255 255 255 255
0.161435 -0.031428 0.289294 230 230 0 255
0.189792 -0.090222 0.146733 255 255 255 255
0.160741 -0.041182 0.292780 167 164 38 255
0.189792 0.007857 0.146733 230 230 0 255
0.161435 -0.050937 0.289294 166 163 39 255
0.183021 0.005012 0.180771 230 230 0 255
0.163489 -0.060316 0.278969 255 255 255 255
0.176781 0.000391 0.212141 230 230 0 255
0.171312 -0.005827 0.239636 230 230 0 255
0.183021 0.007857 0.144680 230 230 0 255
0.183021 -0.090222 0.144680 255 255 255 255
0.127397 -0.050937 0.278969 192 191 23 255
0.169740 0.005012 0.176743 230 230 0 255
0.131426 -0.060316 0.269243 255 255 255 255
0.157501 0.000391 0.206292 230 230 0 255
0.137968 -0.068961 0.253448 255 255 255 255
0.146772 -0.005827 0.232192 230 230 0 255
0.146772 -0.076538 0.232192 255 255 255 255
0.137968 -0.013404 0.253448 230 230 0 255
0.157501 -0.082756 0.206292 255 255 255 255
0.131426 -0.022048 0.269243 230 230 0 255
0.169740 -0.087376 0.176742 255 255 255 255
0.127397 -0.031428 0.278969 230 230 0 255
0.126036 -0.041182 0.282253 211 210 12 255
0.111374 -0.013404 0.239233 230 230 0 255
0.139731 -0.082756 0.196794 255 255 255 255
0.101876 -0.022048 0.253448 230 230 0 255
0.157501 -0.087376 0.170200 255 255 255 255
0.096027 -0.031428 0.262201 230 230 0 255
0.176781 -0.090222 0.141344 255 255 255 255
0.094052 -0.041182 0.265157 230 230 0 255
0.176781 0.007857 0.141344 230 230 0 255
0.096027 -0.050937 0.262201 255 255 255 255
0.157501 0.005012 0.170200 230 230 0 255
0.101876 -0.060316 0.253448 255 255 255 255
0.139731 0.000391 0.196794 230 230 0 255
0.111374 -0.068961 0.239233 255 255 255 255
0.124156 -0.005827 0.220104 230 230 0 255
0.124156 -0.076538 0.220104 255 255 255 255
0.066018 -0.041182 0.242150 255 255 255 255
0.068532 -0.050937 0.239636 255 255 255 255
0.171312 0.007857 0.136856 230 230 0 255
0.146772 0.005012 0.161396 230 230 0 255
0.075976 -0.060316 0.232192 255 255 255 255
0.124156 0.000391 0.184012 230 230 0 255
0.088064 -0.068961 0.220104 255 255 255 255
0.104333 -0.005827 0.203835 230 230 0 255
0.104333 -0.076538 0.203835 255 255 255 255
0.088064 -0.013404 0.220104 230 230 0 255
0.124156 -0.082756 0.184012 255 255 255 255
0.075976 -0.022048 0.232192 230 230 0 255
0.146772 -0.087376 0.161396 255 255 255 255
0.068532 -0.031428 0.239636 230 230 0 255
0.171312 -0.090222 0.136856 255 255 255 255
0.111374 -0.082756 0.168437 255 255 255 255
0.054720 -0.022048 0.206292 230 230 0 255
0.137968 -0.087376 0.150668 255 255 255 255
0.045967 -0.031428 0.212141 230 230 0 255
0.166824 -0.090222 0.131387 255 255 255 255
0.043011 -0.041182 0.214116 230 230 0 255
0.166824 0.007857 0.131387 230 230 0 255
0.045967 -0.050937 0.212141 255 255 255 255
0.137968 0.005012 0.150668 230 230 0 255
0.054720 -0.060316 0.206292 255 255 255 255
0.111374 0.000391 0.168437 230 230 0 255
0.068935 -0.068961 0.196794 255 255 255 255
0.088064 -0.005827 0.184012 230 230 0 255
0.088064 -0.076538 0.184012 255 255 255 255
0.068935 -0.013404 0.196794 230 230 0 255
0.131426 0.005012 0.138428 230 230 0 255
0.029199 -0.050937 0.180771 255 255 255 255
0.038926 -0.060316 0.176742 255 255 255 255
0.101876 0.000391 0.150668 230 230 0 255
0.054720 -0.068961 0.170200 255 255 255 255
0.075976 -0.005827 0.161396 230 230 0 255
0.075976 -0.076538 0.161396 255 255 255 255
0.054720 -0.013404 0.170200 230 230 0 255
0.101876 -0.082756 0.150667 255 255 255 255
0.038926 -0.022048 0.176742 230 230 0 255
0.131426 -0.087376 0.138428 255 255 255 255
0.029199 -0.031428 0.180771 230 230 0 255
0.163489 -0.090222 0.125147 255 255 255 255
0.025915 -0.041182 0.182132 255 255 255 255
0.163489 0.007857 0.125147 230 230 0 255
0.029199 -0.022048 0.144680 230 230 0 255
0.127397 -0.087376 0.125147 255 255 255 255
0.018874 -0.031428 0.146733 230 230 0 255
0.161435 -0.090222 0.118376 255 255 255 255
0.015388 -0.041182 0.147427 255 255 255 255
0.161435 0.007857 0.118376 230 230 0 255
0.018874 -0.050937 0.146733 255 255 255 255
0.127397 0.005012 0.125147 230 230 0 255
0.029199 -0.060316 0.144680 255 255 255 255
0.096027 0.000391 0.131387 230 230 0 255
0.045967 -0.068961 0.141344 255 255 255 255
0.068532 -0.005827 0.136856 230 230 0 255
0.068532 -0.076538 0.136856 255 255 255 255
0.045967 -0.013404 0.141344 230 230 0 255
0.096027 -0.082756 0.131387 255 255 255 255
0.025915 -0.060316 0.111335 255 255 255 255
0.094052 0.000391 0.111335 230 230 0 255
0.043011 -0.068961 0.111335 255 255 255 255
0.066018 -0.005827 0.111335 230 230 0 255
0.066018 -0.076538 0.111335 255 255 255 255
0.043011 -0.013404 0.111335 230 230 0 255
0.094052 -0.082756 0.111335 255 255 255 255
0.025915 -0.022048 0.111335 230 230 0 255
0.126037 -0.087376 0.111335 255 255 255 255
0.015388 -0.031428 0.111335 230 230 0 255
0.160741 -0.090222 0.111335 255 255 255 255
0.011833 -0.041182 0.111335 255 255 255 255
0.160741 0.007857 0.111335 230 230 0 255
0.015388 -0.050937 0.111335 255 255 255 255
0.126037 0.005012 0.111335 230 230 0 255
0.096027 -0.082756 0.091284 255 255 255 255
0.127397 -0.087376 0.097523 255 255 255 255
0.029199 -0.022048 0.077991 230 230 0 255
0.018874 -0.031428 0.075937 230 230 0 255
0.161435 -0.090222 0.104294 255 255 255 255
0.015388 -0.041182 0.075243 230 230 0 255
0.161435 0.007857 0.104294 230 230 0 255
0.018874 -0.050937 0.075937 255 255 255 255
0.127397 0.005012 0.097523 230 230 0 255
0.029199 -0.060316 0.077991 255 255 255 255
0.096027 0.000391 0.091284 230 230 0 255
0.045967 -0.068961 0.081326 255 255 255 255
0.068532 -0.005827 0.085814 230 230 0 255
0.068532 -0.076538 0.085814 255 255 255 255
0.045967 -0.013404 0.081326 230 230 0 255
0.038926 -0.060316 0.045928 255 255 255 255
0.054720 -0.068961 0.052470 255 255 255 255
0.101876 0.000391 0.072003 230 230 0 255
0.075976 -0.005827 0.061274 230 230 0 255
0.075976 -0.076538 0.061274 255 255 255 255
0.054720 -0.013404 0.052470 230 230 0 255
0.101876 -0.082756 0.072003 255 255 255 255
0.038926 -0.022048 0.045928 230 230 0 255
0.131426 -0.087376 0.084242 255 255 255 255
0.029199 -0.031428 0.041899 230 230 0 255
0.163489 -0.090222 0.097523 255 255 255 255
0.025915 -0.041182 0.040539 230 230 0 255
0.163489 0.007857 0.097523 230 230 0 255
0.029199 -0.050937 0.041899 255 255 255 255
0.131426 0.005012 0.084242 230 230 0 255
0.137968 -0.087376 0.072003 255 255 255 255
0.166824 -0.090222 0.091284 255 255 255 255
0.043011 -0.041182 0.008555 230 230 0 255
0.166824 0.007857 0.091284 230 230 0 255
0.045967 -0.050937 0.010530 255 255 255 255
0.137968 0.005012 0.072003 230 230 0 255
0.054720 -0.060316 0.016378 255 255 255 255
0.111374 0.000391 0.054233 230 230 0 255
0.068935 -0.068961 0.025876 255 255 255 255
0.088064 -0.005827 0.038658 230 230 0 255
0.088064 -0.076538 0.038658 255 255 255 255
0.068935 -0.013404 0.025876 230 230 0 255
0.111374 -0.082756 0.054233 255 255 255 255
0.054720 -0.022048 0.016378 230 230 0 255
0.045967 -0.031428 0.010530 230 230 0 255
0.104333 -0.005827 0.018835 230 230 0 255
0.088065 -0.068961 0.002567 255 255 255 255
0.104333 -0.076538 0.018835 255 255 255 255
0.088065 -0.013404 0.002567 230 230 0 255
0.124156 -0.082756 0.038658 255 255 255 255
0.075976 -0.022048 -0.009522 230 230 0 255
0.146772 -0.087376 0.061274 255 255 255 255
0.068532 -0.031428 -0.016966 230 230 0 255
0.171312 -0.090222 0.085814 255 255 255 255
0.066018 -0.041182 -0.019480 230 230 0 255
0.171312 0.007857 0.085814 230 230 0 255
0.068532 -0.050937 -0.016966 255 255 255 255
0.146772 0.005012 0.061274 230 230 0 255
0.075976 -0.060316 -0.009522 255 255 255 255
0.124156 0.000391 0.038658 230 230 0 255
0.096027 -0.031428 -0.039531 230 230 0 255
0.094053 -0.041182 -0.042487 230 230 0 255
0.176781 0.007857 0.081326 230 230 0 255
0.176781 -0.090222 0.081326 255 255 255 255
0.096027 -0.050937 -0.039531 255 255 255 255
0.157501 0.005012 0.052470 230 230 0 255
0.101876 -0.060316 -0.030778 255 255 255 255
0.139731 0.000391 0.025876 230 230 0 255
0.111374 -0.068961 -0.016563 255 255 255 255
0.124156 -0.005827 0.002567 230 230 0 255
0.124156 -0.076538 0.002567 255 255 255 255
0.111374 -0.013404 -0.016563 230 230 0 255
0.139731 -0.082756 0.025876 255 255 255 255
0.101876 -0.022048 -0.030778 230 230 0 255
0.157501 -0.087376 0.052470 255 255 255 255
0.146772 -0.076538 -0.009522 255 255 255 255
0.146772 -0.005827 -0.009522 230 230 0 255
0.137968 -0.013404 -0.030778 230 230 0 255
0.157501 -0.082756 0.016378 255 255 255 255
0.131426 -0.022048 -0.046572 230 230 0 255
0.169740 -0.087376 0.045928 255 255 255 255
0.127397 -0.031428 -0.056298 230 230 0 255
0.183021 -0.090222 0.077991 255 255 255 255
0.126037 -0.041182 -0.059583 230 230 0 255
0.183021 0.007857 0.077991 230 230 0 255
0.127397 -0.050937 -0.056298 255 255 255 255
0.169740 0.005012 0.045928 230 230 0 255
0.131426 -0.060316 -0.046572 255 255 255 255
0.157501 0.000391 0.016378 230 230 0 255
0.137968 -0.068961 -0.030778 255 255 255 255
0.189792 0.007857 0.075937 230 230 0 255
0.189792 -0.090222 0.075937 255 255 255 255
0.161435 -0.050937 -0.066624 255 255 255 255
0.183021 0.005012 0.041899 230 230 0 255
0.163489 -0.060316 -0.056298 255 255 255 255
0.176781 0.000391 0.010529 230 230 0 255
0.166824 -0.068961 -0.039531 255 255 255 255
0.171312 -0.005827 -0.016966 230 230 0 255
0.171312 -0.076538 -0.016966 255 255 255 255
0.166824 -0.013404 -0.039531 230 230 0 255
0.176781 -0.082756 0.010530 255 255 255 255
0.163489 -0.022048 -0.056298 230 230 0 255
0.183021 -0.087376 0.041899 255 255 255 255
0.161435 -0.031428 -0.066624 230 230 0 255
0.160741 -0.041182 -0.070110 255 255 255 255
0.196833 -0.005827 -0.019480 230 230 0 255
0.196833 -0.013404 -0.042487 230 230 0 255
0.196833 -0.082756 0.008555 255 255 255 255
0.196833 -0.022048 -0.059583 230 230 0 255
0.196833 -0.087376 0.040539 255 255 255 255
0.196833 -0.031428 -0.070110 230 230 0 255
0.196833 -0.090222 0.075243 255 255 255 255
0.196833 -0.041182 -0.073665 230 230 0 255
0.196833 0.007857 0.075243 230 230 0 255
0.196833 -0.050937 -0.070110 255 255 255 255
0.196833 0.005012 0.040539 230 230 0 255
0.196833 -0.060316 -0.059583 255 255 255 255
0.196833 0.000391 0.008555 230 230 0 255
0.196833 -0.068961 -0.042487 255 255 255 255
0.196833 -0.076538 -0.019480 255 255 255 255
0.232231 -0.050937 -0.066624 255 255 255 255
0.210645 0.005012 0.041899 230 230 0 255
0.230177 -0.060316 -0.056298 255 255 255 255
0.216884 0.000391 0.010530 230 230 0 255
0.226842 -0.068961 -0.039531 255 255 255 255
0.222354 -0.005827 -0.016966 230 230 0 255
0.222354 -0.076538 -0.016966 255 255 255 255
0.226842 -0.013404 -0.039531 230 230 0 255
0.216884 -0.082756 0.010530 255 255 255 255
0.230177 -0.022048 -0.056298 230 230 0 255
0.210645 -0.087376 0.041899 255 255 255 255
0.232231 -0.031428 -0.066624 230 230 0 255
0.203874 -0.090222 0.075937 255 255 255 255
0.232925 -0.041182 -0.070110 255 255 255 255
0.203874 0.007857 0.075937 230 230 0 255
0.236165 -0.082756 0.016378 255 255 255 255
0.255698 -0.013404 -0.030778 230 230 0 255
0.262240 -0.022048 -0.046572 230 230 0 255
0.223926 -0.087376 0.045928 255 255 255 255
0.266269 -0.031428 -0.056298 230 230 0 255
0.210645 -0.090222 0.077991 255 255 255 255
0.267629 -0.041182 -0.059583 230 230 0 255
0.210645 0.007857 0.077991 230 230 0 255
0.266269 -0.050937 -0.056298 255 255 255 255
0.223926 0.005012 0.045928 230 230 0 255
0.262240 -0.060316 -0.046572 255 255 255 255
0.236165 0.000391 0.016378 230 230 0 255
0.255698 -0.068961 -0.030778 255 255 255 255
0.246894 -0.005827 -0.009522 230 230 0 255
0.246894 -0.076538 -0.009522 255 255 255 255
0.291790 -0.060316 -0.030778 255 255 255 255
0.253935 0.000391 0.025876 230 230 0 255
0.282292 -0.068961 -0.016563 255 255 255 255
0.269510 -0.005827 0.002567 230 230 0 255
0.269510 -0.076538 0.002567 255 255 255 255
0.282292 -0.013404 -0.016563 230 230 0 255
0.253935 -0.082756 0.025876 255 255 255 255
0.291790 -0.022048 -0.030778 230 230 0 255
0.236165 -0.087376 0.052470 255 255 255 255
0.297639 -0.031428 -0.039531 230 230 0 255
0.216884 -0.090222 0.081326 255 255 255 255
0.299613 -0.041182 -0.042487 230 230 0 255
0.216884 0.007857 0.081326 230 230 0 255
0.297639 -0.050937 -0.039531 255 255 255 255
0.236165 0.005012 0.052470 230 230 0 255
0.246894 -0.087376 0.061274 255 255 255 255
0.317690 -0.022048 -0.009522 230 230 0 255
0.325134 -0.031428 -0.016966 230 230 0 255
0.222354 -0.090222 0.085814 255 255 255 255
0.327648 -0.041182 -0.019480 230 230 0 255
0.222354 0.007857 0.085814 230 230 0 255
0.325134 -0.050937 -0.016966 255 255 255 255
0.246894 0.005012 0.061274 230 230 0 255
0.317690 -0.060316 -0.009522 255 255 255 255
0.269510 0.000391 0.038658 230 230 0 255
0.305601 -0.068961 0.002567 255 255 255 255
0.289333 -0.005827 0.018835 230 230 0 255
0.289333 -0.076538 0.018835 255 255 255 255
0.305601 -0.013404 0.002567 230 230 0 255
0.269510 -0.082756 0.038658 255 255 255 255
0.282292 0.000391 0.054233 230 230 0 255
0.324731 -0.068961 0.025876 255 255 255 255
0.305601 -0.005827 0.038658 230 230 0 255
0.305601 -0.076538 0.038658 255 255 255 255
0.324731 -0.013404 0.025876 230 230 0 255
0.282292 -0.082756 0.054233 255 255 255 255
0.338946 -0.022048 0.016378 230 230 0 255
0.255698 -0.087376 0.072003 255 255 255 255
0.347699 -0.031428 0.010530 230 230 0 255
0.226842 -0.090222 0.091284 255 255 255 255
0.350655 -0.041182 0.008555 230 230 0 255
0.226842 0.007857 0.091284 230 230 0 255
0.347699 -0.050937 0.010530 255 255 255 255
0.255698 0.005012 0.072003 230 230 0 255
0.338946 -0.060316 0.016378 255 255 255 255
0.364466 -0.031428 0.041899 230 230 0 255
0.230177 -0.090222 0.097523 255 255 255 255
0.367751 -0.041182 0.040539 230 230 0 255
0.230177 0.007857 0.097523 230 230 0 255
0.364466 -0.050937 0.041899 255 255 255 255
0.262240 0.005012 0.084242 230 230 0 255
0.354740 -0.060316 0.045928 255 255 255 255
0.291790 0.000391 0.072003 230 230 0 255
0.338946 -0.068961 0.052470 255 255 255 255
0.317690 -0.005827 0.061274 230 230 0 255
0.317690 -0.076538 0.061274 255 255 255 255
0.338946 -0.013404 0.052470 230 230 0 255
0.291790 -0.082756 0.072003 255 255 255 255
0.354740 -0.022048 0.045928 230 230 0 255
0.262240 -0.087376 0.084243 255 255 255 255
0.364466 -0.060316 0.077991 255 255 255 255
0.347699 -0.068961 0.081326 255 255 255 255
0.325134 -0.005827 0.085814 230 230 0 255
0.325134 -0.076538 0.085814 255 255 255 255
0.347699 -0.013404 0.081326 230 230 0 255
0.297638 -0.082756 0.091284 255 255 255 255
0.364466 -0.022048 0.077991 230 230 0 255
0.266269 -0.087376 0.097523 255 255 255 255
0.374792 -0.031428 0.075937 230 230 0 255
0.232231 -0.090222 0.104294 255 255 255 255
0.378278 -0.041182 0.075243 230 230 0 255
0.232231 0.007857 0.104294 230 230 0 255
0.374792 -0.050937 0.075937 255 255 255 255
0.266269 0.005012 0.097523 230 230 0 255
0.297639 0.000391 0.091284 230 230 0 255
-0.037224 0.582000 -0.131509 0 102 153 255
3 0 1 2
3 2 3 4
3 5 4 6
3 2 7 0
3 6 8 0
3 9 1 8
3 3 6 4
3 7 10 11
3 11 12 5
3 13 12 10
3 14 13 7
3 5 15 14
3 16 17 18
3 19 20 17
3 21 22 20
3 23 24 22
3 25 26 24
3 27 28 26
3 29 30 28
3 31 32 30
3 23 21 33
3 33 34 32
3 35 18 34
3 30 32 22
3 36 37 38
3 39 40 37
3 41 42 40
3 43 44 42
3 45 46 44
3 47 48 46
3 49 50 48
3 51 52 50
3 43 41 53
3 53 54 52
3 55 38 54
3 50 52 42
3 56 57 58
3 59 60 57
3 61 62 60
3 62 63 64
3 64 65 66
3 65 67 66
3 68 69 67
3 70 71 69
3 72 61 73
3 73 74 71
3 75 58 74
3 69 71 62
3 76 77 78
3 79 78 77
3 80 81 76
3 82 76 83
3 77 84 85
3 86 87 79
3 82 88 89
3 80 90 81
3 90 88 81
3 91 85 80
3 92 93 94
3 95 96 93
3 97 98 96
3 99 94 98
3 93 98 94
3 95 99 97
3 100 101 102
3 103 102 101
3 104 105 100
3 106 100 107
3 101 108 109
3 110 111 103
3 106 112 113
3 104 114 105
3 113 105 114
3 104 110 109
3 115 116 117
3 118 119 116
3 120 121 119
3 122 117 121
3 119 117 116
3 120 115 122
3 123 124 125
3 124 126 125
3 127 123 125
3 128 129 130
3 124 128 131
3 132 126 133
3 130 134 135
3 136 137 127
3 137 134 127
3 138 131 136
3 139 140 141
3 142 143 140
3 144 145 143
3 146 141 145
3 140 145 141
3 142 146 144
3 147 148 149
3 148 150 149
3 151 152 147
3 153 154 155
3 148 153 156
3 157 150 158
3 155 159 160
3 151 161 152
3 161 159 152
3 162 156 151
3 163 164 165
3 166 167 164
3 168 169 167
3 170 165 169
3 167 165 164
3 168 163 170
3 171 172 173
3 174 175 176
3 177 178 179
3 180 173 178
3 181 180 182
3 183 184 185
3 185 174 172
3 184 178 174
3 176 186 179
3 179 181 177
3 175 183 176
3 177 182 175
3 187 188 189
3 190 191 192
3 193 189 192
3 194 195 196
3 197 198 199
3 200 201 188
3 202 203 201
3 196 204 203
3 195 190 204
3 205 206 190
3 207 191 206
3 208 209 191
3 210 211 209
3 199 212 211
3 198 192 212
3 213 214 215
3 215 216 217
3 218 219 214
3 220 221 213
3 217 219 222
3 222 223 194
3 194 218 224
3 224 225 226
3 226 227 228
3 228 229 230
3 230 231 197
3 197 232 233
3 233 234 220
3 235 236 237
3 238 239 240
3 241 236 242
3 243 244 245
3 246 240 239
3 241 247 248
3 249 245 250
3 251 247 252
3 253 250 254
3 251 255 256
3 257 254 258
3 259 255 260
3 257 261 262
3 259 263 264
3 235 261 265
3 264 266 238
3 265 267 268
3 266 269 270
3 265 271 236
3 239 270 272
3 242 271 273
3 245 244 274
3 246 239 272
3 242 275 247
3 245 276 250
3 252 275 277
3 250 278 254
3 252 279 255
3 254 280 258
3 260 279 281
3 258 267 261
3 263 281 269
3 275 282 277
3 276 283 278
3 277 284 279
3 278 285 280
3 281 284 286
3 280 287 267
3 269 286 288
3 268 287 289
3 270 288 290
3 271 289 291
3 270 292 272
3 273 291 293
3 274 244 294
3 246 272 292
3 273 295 275
3 276 294 296
3 290 297 298
3 291 299 300
3 290 301 292
3 291 302 293
3 294 244 303
3 246 292 301
3 295 302 304
3 296 303 305
3 295 306 282
3 296 307 283
3 284 306 308
3 285 307 309
3 284 310 286
3 287 309 311
3 286 297 288
3 287 299 289
3 305 312 307
3 308 313 314
3 309 312 315
3 308 316 310
3 311 315 317
3 310 318 297
3 311 319 299
3 298 318 320
3 299 321 300
3 301 320 322
3 302 321 323
3 303 244 324
3 246 301 322
3 302 325 304
3 303 326 305
3 306 325 313
3 319 327 321
3 320 328 322
3 323 327 329
3 324 244 330
3 246 322 328
3 323 331 325
3 326 330 332
3 313 331 333
3 312 332 334
3 313 335 314
3 312 336 315
3 314 337 316
3 317 336 338
3 318 337 339
3 319 338 340
3 318 341 320
3 333 342 335
3 334 343 336
3 335 344 337
3 338 343 345
3 339 344 346
3 340 345 347
3 339 348 341
3 340 349 327
3 328 348 350
3 327 351 329
3 330 244 352
3 246 328 350
3 331 351 353
3 330 354 332
3 333 353 355
3 334 354 356
3 348 357 350
3 349 358 351
3 352 244 359
3 246 350 357
3 353 358 360
3 354 359 361
3 355 360 362
3 356 361 363
3 355 364 342
3 356 365 343
3 342 366 344
3 345 365 367
3 346 366 368
3 347 367 369
3 346 370 348
3 347 371 349
3 366 372 373
3 365 374 367
3 368 373 375
3 367 376 369
3 370 375 377
3 371 376 378
3 357 377 379
3 358 378 380
3 359 244 381
3 246 357 379
3 358 382 360
3 359 383 361
3 360 384 362
3 361 385 363
3 364 384 372
3 363 386 365
3 381 244 387
3 246 379 388
3 380 389 382
3 383 387 390
3 382 391 384
3 383 392 385
3 372 391 393
3 386 392 394
3 373 393 395
3 386 396 374
3 373 397 375
3 374 398 376
3 377 397 399
3 378 398 400
3 377 388 379
3 380 400 401
3 394 402 396
3 395 403 397
3 396 404 398
3 399 403 405
3 400 404 406
3 388 405 407
3 401 406 408
3 387 244 409
3 246 388 407
3 401 410 389
3 387 411 390
3 389 412 391
3 390 413 392
3 393 412 414
3 394 413 415
3 395 414 416
3 410 417 418
3 411 419 420
3 410 421 412
3 413 420 422
3 414 421 423
3 413 424 415
3 414 425 416
3 402 424 426
3 403 425 427
3 402 428 404
3 403 429 405
3 406 428 430
3 405 431 407
3 406 417 408
3 409 244 419
3 246 407 431
3 425 432 427
3 426 433 428
3 427 434 429
3 428 435 430
3 431 434 436
3 417 435 437
3 419 244 438
3 246 431 436
3 417 439 418
3 419 440 420
3 421 439 441
3 422 440 442
3 423 441 443
3 424 442 444
3 425 443 445
3 424 446 426
3 438 447 440
3 441 448 449
3 442 447 450
3 443 449 451
3 444 450 452
3 445 451 453
3 444 454 446
3 432 453 455
3 446 456 433
3 432 457 434
3 433 458 435
3 436 457 459
3 435 460 437
3 438 244 461
3 246 436 459
3 439 460 448
3 454 462 456
3 455 463 457
3 458 462 464
3 457 465 459
3 458 466 460
3 461 244 467
3 246 459 465
3 448 466 468
3 447 467 469
3 448 470 449
3 450 469 471
3 451 470 472
3 452 471 473
3 451 474 453
3 454 473 475
3 455 474 476
3 468 477 470
3 469 478 471
3 472 477 479
3 473 478 480
3 472 481 474
3 475 480 482
3 474 483 476
3 475 484 462
3 463 483 485
3 464 484 486
3 465 485 487
3 464 488 466
3 467 244 489
3 246 465 487
3 468 488 490
3 467 491 469
3 485 492 493
3 486 494 495
3 485 496 487
3 488 495 497
3 489 244 498
3 246 487 496
3 488 499 490
3 491 498 500
3 490 501 477
3 491 502 478
3 479 501 503
3 480 502 504
3 481 503 505
3 480 506 482
3 481 492 483
3 482 494 484
3 503 507 508
3 504 509 510
3 505 508 511
3 504 512 506
3 505 513 492
3 506 514 494
3 493 513 515
3 495 514 516
3 496 515 517
3 497 516 518
3 498 244 519
3 246 496 517
3 497 520 499
3 498 521 500
3 499 507 501
3 500 509 502
3 517 522 523
3 516 524 518
3 519 244 525
3 246 517 523
3 520 524 526
3 519 527 521
3 507 526 528
3 521 529 509
3 507 530 508
3 510 529 531
3 508 532 511
3 512 531 533
3 511 534 513
3 514 533 535
3 515 534 522
3 514 536 516
3 529 537 531
3 532 538 539
3 531 540 533
3 534 539 541
3 533 542 535
3 534 543 522
3 535 544 536
3 522 545 523
3 536 546 524
3 525 244 547
3 246 523 545
3 526 546 548
3 527 547 549
3 528 548 550
3 529 549 551
3 530 550 538
3 546 552 553
3 547 244 554
3 246 545 555
3 546 556 548
3 547 557 549
3 550 556 558
3 549 559 551
3 550 560 538
3 551 561 537
3 538 562 539
3 540 561 563
3 541 562 564
3 542 563 565
3 543 564 566
3 542 552 544
3 545 566 555
3 560 567 562
3 563 568 569
3 564 567 570
3 563 571 565
3 564 572 566
3 565 573 552
3 566 574 555
3 553 573 575
3 554 244 576
3 246 555 574
3 553 577 556
3 557 576 578
3 558 577 579
3 559 578 580
3 560 579 581
3 559 568 561
3 576 244 582
3 246 574 583
3 575 584 577
3 578 582 585
3 579 584 586
3 580 585 587
3 581 586 588
3 580 589 568
3 581 590 567
3 569 589 591
3 570 590 592
3 569 593 571
3 570 594 572
3 571 595 573
3 572 583 574
3 575 595 596
3 591 597 598
3 590 599 592
3 593 598 600
3 594 599 601
3 593 602 595
3 594 603 583
3 595 604 596
3 582 244 605
3 246 583 603
3 584 604 606
3 582 607 585
3 586 606 608
3 585 609 587
3 586 610 588
3 587 597 589
3 588 611 590
3 604 612 606
3 605 613 607
3 606 614 608
3 607 615 609
3 610 614 616
3 609 617 597
3 611 616 618
3 597 619 598
3 599 618 620
3 598 621 600
3 601 620 622
3 602 621 623
3 603 622 624
3 604 623 625
3 605 244 626
3 246 603 624
3 618 627 620
3 621 628 629
3 622 627 630
3 623 629 631
3 624 630 632
3 623 633 625
3 626 244 634
3 246 624 632
3 612 633 635
3 626 636 613
3 612 637 614
3 613 638 615
3 614 639 616
3 617 638 640
3 618 639 641
3 617 628 619
3 635 642 637
3 636 643 638
3 637 644 639
3 640 643 645
3 641 644 646
3 640 647 628
3 641 648 627
3 629 647 649
3 630 648 650
3 631 649 651
3 632 650 652
3 631 653 633
3 634 244 654
3 246 632 652
3 635 653 655
3 634 656 636
3 648 657 650
3 651 658 659
3 650 660 652
3 651 661 653
3 654 244 662
3 246 652 660
3 655 661 663
3 656 662 664
3 655 665 642
3 643 664 666
3 644 665 667
3 645 666 668
3 646 667 669
3 645 670 647
3 646 671 648
3 647 658 649
3 664 672 666
3 665 673 667
3 666 674 668
3 667 675 669
3 670 674 676
3 671 675 677
3 658 676 678
3 657 677 679
3 659 678 680
3 660 679 681
3 661 680 682
3 662 244 683
3 246 660 681
3 661 684 663
3 662 685 664
3 663 686 665
3 678 687 680
3 679 688 681
3 682 687 689
3 683 244 690
3 246 681 688
3 682 691 684
3 685 690 692
3 686 691 693
3 672 692 694
3 673 693 695
3 672 696 674
3 673 697 675
3 676 696 698
3 677 697 699
3 676 700 678
3 679 699 701
3 695 702 703
3 694 704 696
3 695 705 697
3 698 704 706
3 699 705 707
3 698 708 700
3 699 709 701
3 700 710 687
3 701 711 688
3 687 712 689
3 690 244 713
3 246 688 711
3 691 712 714
3 692 713 715
3 693 714 702
3 694 715 716
3 711 238 240
3 710 241 712
3 713 244 243
3 246 711 240
3 714 241 248
3 713 249 715
3 702 248 251
3 715 253 716
3 702 256 703
3 716 257 704
3 703 259 705
3 706 257 262
3 705 264 707
3 708 262 235
3 707 238 709
3 708 237 710
3 0 8 1
3 2 1 3
3 6 0 11
3 5 14 4
3 6 11 5
3 2 4 14
3 7 11 0
3 2 14 7
3 6 9 8
3 9 3 1
3 3 9 6
3 7 13 10
3 11 10 12
3 13 15 12
3 14 15 13
3 5 12 15
3 16 19 17
3 19 21 20
3 21 23 22
3 23 25 24
3 25 27 26
3 27 29 28
3 29 31 30
3 31 33 32
3 21 19 35
3 19 16 35
3 35 33 21
3 33 31 23
3 31 29 25
3 29 27 25
3 25 23 31
3 33 35 34
3 35 16 18
3 34 18 17
3 17 20 34
3 20 22 32
3 34 20 32
3 22 24 28
3 24 26 28
3 28 30 22
3 36 39 37
3 39 41 40
3 41 43 42
3 43 45 44
3 45 47 46
3 47 49 48
3 49 51 50
3 51 53 52
3 41 39 55
3 39 36 55
3 55 53 41
3 53 51 43
3 51 49 45
3 49 47 45
3 45 43 51
3 53 55 54
3 55 36 38
3 54 38 37
3 37 40 54
3 40 42 52
3 54 40 52
3 42 44 48
3 44 46 48
3 48 50 42
3 56 59 57
3 59 61 60
3 61 72 62
3 62 72 63
3 64 63 65
3 65 68 67
3 68 70 69
3 70 73 71
3 61 59 75
3 59 56 75
3 75 73 61
3 73 70 72
3 70 68 63
3 68 65 63
3 63 72 70
3 73 75 74
3 75 56 58
3 74 58 57
3 57 60 74
3 60 62 71
3 74 60 71
3 62 64 69
3 64 66 67
3 69 64 67
3 76 84 77
3 79 87 78
3 78 87 80
3 87 91 80
3 88 83 81
3 83 76 81
3 78 80 76
3 82 84 76
3 84 82 90
3 82 89 90
3 86 79 85
3 79 77 85
3 84 90 85
3 86 91 87
3 82 83 88
3 80 85 90
3 90 89 88
3 91 86 85
3 92 95 93
3 95 97 96
3 97 99 98
3 99 92 94
3 93 96 98
3 95 92 99
3 100 108 101
3 103 111 102
3 102 111 104
3 111 717 104
3 112 107 105
3 107 100 105
3 102 104 100
3 106 108 100
3 108 106 114
3 106 113 114
3 110 103 109
3 103 101 109
3 108 114 109
3 110 717 111
3 106 107 112
3 104 109 114
3 113 112 105
3 104 717 110
3 115 118 116
3 118 120 119
3 120 122 121
3 122 115 117
3 119 121 117
3 120 118 115
3 123 128 124
3 124 133 126
3 125 126 136
3 126 138 136
3 134 129 127
3 129 123 127
3 125 136 127
3 128 123 129
3 128 130 137
3 130 135 137
3 132 133 131
3 133 124 131
3 128 137 131
3 132 138 126
3 130 129 134
3 136 131 137
3 137 135 134
3 138 132 131
3 139 142 140
3 142 144 143
3 144 146 145
3 146 139 141
3 140 143 145
3 142 139 146
3 147 153 148
3 148 158 150
3 149 150 151
3 150 162 151
3 159 154 152
3 154 147 152
3 149 151 147
3 153 147 154
3 153 155 161
3 155 160 161
3 157 158 156
3 158 148 156
3 153 161 156
3 157 162 150
3 155 154 159
3 151 156 161
3 161 160 159
3 162 157 156
3 163 166 164
3 166 168 167
3 168 170 169
3 170 163 165
3 167 169 165
3 168 166 163
3 171 185 172
3 176 179 172
3 179 173 172
3 172 174 176
3 177 175 178
3 175 174 178
3 178 173 179
3 180 171 173
3 181 186 180
3 186 171 180
3 180 184 182
3 171 186 183
3 183 182 184
3 185 171 183
3 185 184 174
3 184 180 178
3 176 183 186
3 179 186 181
3 175 182 183
3 177 181 182
3 187 200 188
3 192 189 188
3 188 201 192
3 201 203 192
3 203 204 190
3 190 206 191
3 191 209 211
3 211 212 191
3 212 192 191
3 203 190 192
3 193 187 189
3 224 226 205
3 226 207 205
3 200 187 213
3 200 213 215
3 194 224 195
3 224 205 195
3 202 200 215
3 202 215 217
3 202 217 196
3 217 222 196
3 222 194 196
3 207 226 208
3 226 228 208
3 213 187 193
3 220 213 193
3 210 208 230
3 208 228 230
3 220 193 198
3 233 220 198
3 199 210 197
3 210 230 197
3 197 233 198
3 200 202 201
3 202 196 203
3 196 195 204
3 195 205 190
3 205 207 206
3 207 208 191
3 208 210 209
3 210 199 211
3 199 198 212
3 198 193 192
3 213 221 214
3 215 214 216
3 214 221 234
3 234 232 231
3 231 229 218
3 229 227 218
3 227 225 218
3 218 223 219
3 219 216 214
3 214 234 218
3 234 231 218
3 220 234 221
3 217 216 219
3 222 219 223
3 194 223 218
3 224 218 225
3 226 225 227
3 228 227 229
3 230 229 231
3 197 231 232
3 233 232 234
3 235 265 236
3 238 266 239
3 241 237 236
3 241 242 247
3 249 243 245
3 251 248 247
3 253 249 250
3 251 252 255
3 257 253 254
3 259 256 255
3 257 258 261
3 259 260 263
3 235 262 261
3 264 263 266
3 265 261 267
3 266 263 269
3 265 268 271
3 239 266 270
3 242 236 271
3 242 273 275
3 245 274 276
3 252 247 275
3 250 276 278
3 252 277 279
3 254 278 280
3 260 255 279
3 258 280 267
3 263 260 281
3 275 295 282
3 276 296 283
3 277 282 284
3 278 283 285
3 281 279 284
3 280 285 287
3 269 281 286
3 268 267 287
3 270 269 288
3 271 268 289
3 270 290 292
3 273 271 291
3 273 293 295
3 276 274 294
3 290 288 297
3 291 289 299
3 290 298 301
3 291 300 302
3 295 293 302
3 296 294 303
3 295 304 306
3 296 305 307
3 284 282 306
3 285 283 307
3 284 308 310
3 287 285 309
3 286 310 297
3 287 311 299
3 305 326 312
3 308 306 313
3 309 307 312
3 308 314 316
3 311 309 315
3 310 316 318
3 311 317 319
3 298 297 318
3 299 319 321
3 301 298 320
3 302 300 321
3 302 323 325
3 303 324 326
3 306 304 325
3 319 340 327
3 320 341 328
3 323 321 327
3 323 329 331
3 326 324 330
3 313 325 331
3 312 326 332
3 313 333 335
3 312 334 336
3 314 335 337
3 317 315 336
3 318 316 337
3 319 317 338
3 318 339 341
3 333 355 342
3 334 356 343
3 335 342 344
3 338 336 343
3 339 337 344
3 340 338 345
3 339 346 348
3 340 347 349
3 328 341 348
3 327 349 351
3 331 329 351
3 330 352 354
3 333 331 353
3 334 332 354
3 348 370 357
3 349 371 358
3 353 351 358
3 354 352 359
3 355 353 360
3 356 354 361
3 355 362 364
3 356 363 365
3 342 364 366
3 345 343 365
3 346 344 366
3 347 345 367
3 346 368 370
3 347 369 371
3 366 364 372
3 365 386 374
3 368 366 373
3 367 374 376
3 370 368 375
3 371 369 376
3 357 370 377
3 358 371 378
3 358 380 382
3 359 381 383
3 360 382 384
3 361 383 385
3 364 362 384
3 363 385 386
3 380 401 389
3 383 381 387
3 382 389 391
3 383 390 392
3 372 384 391
3 386 385 392
3 373 372 393
3 386 394 396
3 373 395 397
3 374 396 398
3 377 375 397
3 378 376 398
3 377 399 388
3 380 378 400
3 394 415 402
3 395 416 403
3 396 402 404
3 399 397 403
3 400 398 404
3 388 399 405
3 401 400 406
3 401 408 410
3 387 409 411
3 389 410 412
3 390 411 413
3 393 391 412
3 394 392 413
3 395 393 414
3 410 408 417
3 411 409 419
3 410 418 421
3 413 411 420
3 414 412 421
3 413 422 424
3 414 423 425
3 402 415 424
3 403 416 425
3 402 426 428
3 403 427 429
3 406 404 428
3 405 429 431
3 406 430 417
3 425 445 432
3 426 446 433
3 427 432 434
3 428 433 435
3 431 429 434
3 417 430 435
3 417 437 439
3 419 438 440
3 421 418 439
3 422 420 440
3 423 421 441
3 424 422 442
3 425 423 443
3 424 444 446
3 438 461 447
3 441 439 448
3 442 440 447
3 443 441 449
3 444 442 450
3 445 443 451
3 444 452 454
3 432 445 453
3 446 454 456
3 432 455 457
3 433 456 458
3 436 434 457
3 435 458 460
3 439 437 460
3 454 475 462
3 455 476 463
3 458 456 462
3 457 463 465
3 458 464 466
3 448 460 466
3 447 461 467
3 448 468 470
3 450 447 469
3 451 449 470
3 452 450 471
3 451 472 474
3 454 452 473
3 455 453 474
3 468 490 477
3 469 491 478
3 472 470 477
3 473 471 478
3 472 479 481
3 475 473 480
3 474 481 483
3 475 482 484
3 463 476 483
3 464 462 484
3 465 463 485
3 464 486 488
3 468 466 488
3 467 489 491
3 485 483 492
3 486 484 494
3 485 493 496
3 488 486 495
3 488 497 499
3 491 489 498
3 490 499 501
3 491 500 502
3 479 477 501
3 480 478 502
3 481 479 503
3 480 504 506
3 481 505 492
3 482 506 494
3 503 501 507
3 504 502 509
3 505 503 508
3 504 510 512
3 505 511 513
3 506 512 514
3 493 492 513
3 495 494 514
3 496 493 515
3 497 495 516
3 497 518 520
3 498 519 521
3 499 520 507
3 500 521 509
3 517 515 522
3 516 536 524
3 520 518 524
3 519 525 527
3 507 520 526
3 521 527 529
3 507 528 530
3 510 509 529
3 508 530 532
3 512 510 531
3 511 532 534
3 514 512 533
3 515 513 534
3 514 535 536
3 529 551 537
3 532 530 538
3 531 537 540
3 534 532 539
3 533 540 542
3 534 541 543
3 535 542 544
3 522 543 545
3 536 544 546
3 526 524 546
3 527 525 547
3 528 526 548
3 529 527 549
3 530 528 550
3 546 544 552
3 546 553 556
3 547 554 557
3 550 548 556
3 549 557 559
3 550 558 560
3 551 559 561
3 538 560 562
3 540 537 561
3 541 539 562
3 542 540 563
3 543 541 564
3 542 565 552
3 545 543 566
3 560 581 567
3 563 561 568
3 564 562 567
3 563 569 571
3 564 570 572
3 565 571 573
3 566 572 574
3 553 552 573
3 553 575 577
3 557 554 576
3 558 556 577
3 559 557 578
3 560 558 579
3 559 580 568
3 575 596 584
3 578 576 582
3 579 577 584
3 580 578 585
3 581 579 586
3 580 587 589
3 581 588 590
3 569 568 589
3 570 567 590
3 569 591 593
3 570 592 594
3 571 593 595
3 572 594 583
3 575 573 595
3 591 589 597
3 590 611 599
3 593 591 598
3 594 592 599
3 593 600 602
3 594 601 603
3 595 602 604
3 584 596 604
3 582 605 607
3 586 584 606
3 585 607 609
3 586 608 610
3 587 609 597
3 588 610 611
3 604 625 612
3 605 626 613
3 606 612 614
3 607 613 615
3 610 608 614
3 609 615 617
3 611 610 616
3 597 617 619
3 599 611 618
3 598 619 621
3 601 599 620
3 602 600 621
3 603 601 622
3 604 602 623
3 618 641 627
3 621 619 628
3 622 620 627
3 623 621 629
3 624 622 630
3 623 631 633
3 612 625 633
3 626 634 636
3 612 635 637
3 613 636 638
3 614 637 639
3 617 615 638
3 618 616 639
3 617 640 628
3 635 655 642
3 636 656 643
3 637 642 644
3 640 638 643
3 641 639 644
3 640 645 647
3 641 646 648
3 629 628 647
3 630 627 648
3 631 629 649
3 632 630 650
3 631 651 653
3 635 633 653
3 634 654 656
3 648 671 657
3 651 649 658
3 650 657 660
3 651 659 661
3 655 653 661
3 656 654 662
3 655 663 665
3 643 656 664
3 644 642 665
3 645 643 666
3 646 644 667
3 645 668 670
3 646 669 671
3 647 670 658
3 664 685 672
3 665 686 673
3 666 672 674
3 667 673 675
3 670 668 674
3 671 669 675
3 658 670 676
3 657 671 677
3 659 658 678
3 660 657 679
3 661 659 680
3 661 682 684
3 662 683 685
3 663 684 686
3 678 700 687
3 679 701 688
3 682 680 687
3 682 689 691
3 685 683 690
3 686 684 691
3 672 685 692
3 673 686 693
3 672 694 696
3 673 695 697
3 676 674 696
3 677 675 697
3 676 698 700
3 679 677 699
3 695 693 702
3 694 716 704
3 695 703 705
3 698 696 704
3 699 697 705
3 698 706 708
3 699 707 709
3 700 708 710
3 701 709 711
3 687 710 712
3 691 689 712
3 692 690 713
3 693 691 714
3 694 692 715
3 711 709 238
3 710 237 241
3 714 712 241
3 713 243 249
3 702 714 248
3 715 249 253
3 702 251 256
3 716 253 257
3 703 256 259
3 706 704 257
3 705 259 264
3 708 706 262
3 707 264 238
3 708 235 237
